<svg width="15" height="16" viewBox="0 0 15 16" fill="none" xmlns="http://www.w3.org/2000/svg">
<g opacity="0.7" clip-path="url(#clip0_42_8)">
<path d="M0.79983 5.04956H14.245V5.35527C14.245 8.36521 14.245 11.3746 14.245 14.3845C14.245 15.2352 13.7466 15.7495 12.9276 15.7495C9.3172 15.7495 5.70737 15.7495 2.09701 15.7495C1.32115 15.7495 0.790245 15.2517 0.787582 14.4553C0.7764 11.3543 0.783322 8.25379 0.783855 5.15275C0.783855 5.1264 0.791842 5.10006 0.800362 5.04956H0.79983ZM7.18986 8.50516V5.99469H4.77709V8.50516H7.18986ZM7.83951 5.98536V8.49693H10.2608V5.98536H7.83951ZM1.72798 8.47498C1.75141 8.4898 1.76685 8.50736 1.78176 8.50736C2.5246 8.5123 3.26745 8.51943 4.00975 8.51065C4.06087 8.5101 4.15406 8.38551 4.15513 8.318C4.16578 7.60723 4.15832 6.89592 4.16418 6.1846C4.16578 6.01171 4.09389 5.9656 3.94106 5.96835C3.6141 5.97548 3.28662 5.96999 2.95913 5.96999C2.55442 5.96999 2.14972 5.96999 1.72798 5.96999V8.47498ZM13.311 6.01061C13.2764 5.99689 13.2519 5.97878 13.2279 5.97878C12.5026 5.97548 11.7774 5.97603 11.0521 5.96999C10.8822 5.96835 10.8748 6.07483 10.8753 6.20326C10.8769 6.89592 10.8817 7.58912 10.8721 8.28178C10.8694 8.48376 10.9515 8.52822 11.1256 8.52383C11.4792 8.5145 11.8333 8.52108 12.1869 8.52108C12.5559 8.52108 12.9254 8.52108 13.3104 8.52108V6.01061H13.311ZM4.13809 11.6468V9.15007H1.72745V11.6468H4.13755H4.13809ZM7.19731 9.13306C6.41826 9.13306 5.66797 9.13525 4.9182 9.13141C4.76111 9.13031 4.75472 9.22581 4.75526 9.34546C4.75739 9.81913 4.75579 10.2933 4.75579 10.767C4.75579 11.0557 4.75579 11.3439 4.75579 11.643H7.19731V9.13361V9.13306ZM10.2821 11.6457C10.2821 10.8471 10.2789 10.0831 10.2848 9.31912C10.2864 9.14678 10.2001 9.12976 10.0686 9.13086C9.60955 9.1347 9.15 9.13196 8.69045 9.13196C8.41035 9.13196 8.13026 9.13196 7.83472 9.13196V11.6452H10.2816L10.2821 11.6457ZM10.8998 9.15007V11.638H13.3115V9.15007H10.8998ZM4.77549 12.3055V14.7945H7.18666V12.3055H4.77549ZM7.84004 12.306V14.7934H10.2656V12.306H7.84004ZM1.71094 12.3049C1.71094 13.1046 1.71414 13.8691 1.70881 14.6337C1.70775 14.8104 1.80573 14.817 1.93086 14.817C2.59383 14.8154 3.2568 14.8115 3.91923 14.8198C4.10134 14.822 4.16897 14.7643 4.16578 14.5706C4.15619 13.997 4.16258 13.4229 4.16258 12.8488C4.16258 12.6704 4.16258 12.4921 4.16258 12.3049H1.71094ZM10.919 12.3071C10.9025 12.3406 10.8876 12.3565 10.8876 12.3724C10.8833 13.1282 10.8822 13.884 10.8758 14.6397C10.8742 14.8181 10.9855 14.817 11.1064 14.8165C11.5569 14.8154 12.0079 14.8165 12.4584 14.8165C12.7391 14.8165 13.0192 14.8165 13.3056 14.8165V12.3071H10.9184H10.919Z" fill="#606060" fill-opacity="0.7"/>
<path d="M11.023 1.89672C11.7014 1.89672 12.3367 1.88849 12.9715 1.90166C13.161 1.90551 13.3644 1.93514 13.5359 2.01253C13.9806 2.21287 14.2101 2.59432 14.2399 3.08555C14.2622 3.45822 14.2399 3.83309 14.2473 4.20686C14.2505 4.36713 14.184 4.41982 14.0407 4.4061C13.988 4.40116 13.9348 4.40555 13.8815 4.40555C9.63427 4.40555 5.3865 4.40555 1.13926 4.40555H0.75C0.786743 3.83529 0.768638 3.27655 0.871943 2.74306C0.973118 2.2211 1.45503 1.90441 1.98115 1.89782C2.57382 1.89069 3.16703 1.89014 3.7597 1.89892C3.94182 1.90166 4.01264 1.84403 4.00678 1.64974C3.9956 1.27597 3.9988 0.901646 4.00572 0.527874C4.01158 0.182643 4.18943 -0.0100055 4.47752 -0.000126111C4.7475 0.00975332 4.90725 0.207891 4.90831 0.541596C4.90991 0.978486 4.90831 1.41538 4.90831 1.87971C5.01162 1.88575 5.09682 1.89563 5.18255 1.89563C6.73107 1.89672 8.27958 1.89178 9.8281 1.90111C10.0565 1.90276 10.1423 1.84568 10.1284 1.5976C10.1077 1.23425 10.1194 0.868166 10.1247 0.503725C10.1295 0.192523 10.2999 0.00371589 10.5667 -0.000126111C10.8494 -0.00396811 11.0198 0.183741 11.022 0.511409C11.0246 0.95708 11.0225 1.4033 11.0225 1.89617L11.023 1.89672ZM4.90884 2.33691C4.90884 2.63384 4.91417 2.88576 4.90778 3.13714C4.89979 3.45273 4.68626 3.6377 4.38486 3.60038C4.16068 3.57238 4.01637 3.3984 4.00732 3.12122C3.9988 2.87588 4.00572 2.62945 4.00572 2.34734C3.59729 2.62176 3.46097 2.99334 3.57546 3.3973C3.69208 3.80784 4.05684 4.09874 4.45409 4.09819C4.84494 4.09764 5.2145 3.81992 5.33698 3.43462C5.46531 3.03066 5.321 2.62396 4.90938 2.33636L4.90884 2.33691ZM10.1236 2.35337C9.72426 2.60255 9.57676 3.00267 9.69444 3.41541C9.81 3.81992 10.2174 4.12179 10.6162 4.09764C11.0523 4.0713 11.408 3.73924 11.49 3.28204C11.5539 2.92473 11.3654 2.53285 11.0566 2.38191C11.047 2.39563 11.03 2.40881 11.03 2.42253C11.0262 2.6503 11.0262 2.87753 11.0225 3.10531C11.0172 3.42364 10.8622 3.59873 10.5859 3.60257C10.2972 3.60641 10.1306 3.42694 10.1247 3.09762C10.1204 2.86326 10.1236 2.6289 10.1236 2.35392V2.35337Z" fill="#606060" fill-opacity="0.7"/>
</g>
<defs>
<clipPath id="clip0_42_8">
<rect width="13.5" height="15.75" fill="white" transform="translate(0.75)"/>
</clipPath>
</defs>
</svg>
