<svg width="95" height="86" viewBox="0 0 95 86" fill="none" xmlns="http://www.w3.org/2000/svg">
<g clip-path="url(#clip0_9_78)">
<path d="M11.3331 35.2831V35.3233C11.075 35.2965 10.8168 35.2831 10.5586 35.2831C5.47632 35.2831 1.35889 40.1548 1.35889 46.1673C1.35889 52.1798 5.47632 57.0515 10.5586 57.0515C10.8168 57.0515 11.075 57.0247 11.3331 57.0112V84.6579H24.0116V35.2831H11.3331Z" stroke="#AE7BB6" stroke-width="2" stroke-linejoin="bevel"/>
<path d="M83.6667 35.2831V35.3233C83.9249 35.2965 84.1831 35.2831 84.4413 35.2831C89.5235 35.2831 93.641 40.1548 93.641 46.1673C93.641 52.1798 89.5235 57.0515 84.4413 57.0515C84.1831 57.0515 83.9249 57.0247 83.6667 57.0112V84.6579H70.9883V35.2831H83.6667Z" stroke="#AE7BB6" stroke-width="2" stroke-linejoin="bevel"/>
<path d="M70.9885 53.8037H24.0117V84.6579H70.9885V53.8037Z" stroke="#AE7BB6" stroke-width="2" stroke-linejoin="bevel"/>
<path d="M12.6919 35.726C12.6919 16.7356 28.2784 1.34207 47.5067 1.34207C66.7349 1.34207 82.3214 16.7356 82.3214 35.726" stroke="#AE7BB6" stroke-width="2" stroke-linejoin="bevel"/>
<path d="M24.0117 69.2241H70.9885" stroke="#AE7BB6" stroke-width="2" stroke-linejoin="bevel"/>
<path d="M32.6948 25.553L35.5349 28.358" stroke="#AE7BB6" stroke-width="2" stroke-linejoin="bevel"/>
<path d="M30.1129 25.7007L27.4087 28.358" stroke="#AE7BB6" stroke-width="2" stroke-linejoin="bevel"/>
<path d="M30.2624 22.775L27.4087 19.97" stroke="#AE7BB6" stroke-width="2" stroke-linejoin="bevel"/>
<path d="M32.8442 22.6273L35.5348 19.97" stroke="#AE7BB6" stroke-width="2" stroke-linejoin="bevel"/>
<path d="M33.4964 24.1036C33.4964 25.2041 32.5996 26.0899 31.4853 26.0899C30.371 26.0899 29.4741 25.2041 29.4741 24.1036C29.4741 23.0031 30.371 22.1173 31.4853 22.1173C32.5996 22.1173 33.4964 23.0031 33.4964 24.1036Z" stroke="#AE7BB6" stroke-width="2" stroke-linejoin="bevel"/>
<path d="M61.1636 25.553L64.0172 28.358" stroke="#AE7BB6" stroke-width="2" stroke-linejoin="bevel"/>
<path d="M58.5817 25.7007L55.8911 28.358" stroke="#AE7BB6" stroke-width="2" stroke-linejoin="bevel"/>
<path d="M58.7448 22.775L55.8911 19.97" stroke="#AE7BB6" stroke-width="2" stroke-linejoin="bevel"/>
<path d="M61.313 22.6273L64.0172 19.97" stroke="#AE7BB6" stroke-width="2" stroke-linejoin="bevel"/>
<path d="M61.9652 24.1036C61.9652 25.2041 61.0683 26.0899 59.954 26.0899C58.8397 26.0899 57.9429 25.2041 57.9429 24.1036C57.9429 23.0031 58.8397 22.1173 59.954 22.1173C61.0683 22.1173 61.9652 23.0031 61.9652 24.1036Z" stroke="#AE7BB6" stroke-width="2" stroke-linejoin="bevel"/>
</g>
<defs>
<clipPath id="clip0_9_78">
<rect width="95" height="86" fill="white"/>
</clipPath>
</defs>
</svg>
