<svg width="24" height="21" viewBox="0 0 24 21" fill="none" xmlns="http://www.w3.org/2000/svg">
<g clip-path="url(#clip0_2_36)">
<path d="M12.1484 2.42889C13.2496 1.21215 14.4188 0.471814 15.8483 0.154208C20.273 -0.829922 24.3481 3.03391 23.6613 7.51953C23.3285 9.69804 22.1905 11.361 20.5656 12.7209C18.7385 14.2496 16.8288 15.6856 15.2832 17.5185C14.468 18.4848 13.703 19.4946 12.9291 20.4944C12.4053 21.1699 12.0423 21.171 11.5521 20.4743C9.6971 17.8339 7.49259 15.5312 4.93405 13.5641C3.43199 12.4089 2.06841 11.1295 1.3023 9.33346C-0.640891 4.77962 2.67482 -0.185764 7.54508 0.00994361C9.12531 0.0736884 10.5124 0.660812 11.666 1.75454C11.8525 1.93123 11.972 2.17727 12.1495 2.42889H12.1484ZM12.3238 19.0663C12.374 19.0093 12.4801 18.884 12.5918 18.7632C13.9878 17.2434 15.3324 15.6722 16.7964 14.2217C17.8764 13.1514 19.1406 12.2702 20.2663 11.2424C21.5785 10.0447 22.3703 8.56852 22.4339 6.74005C22.5143 4.42623 21.0972 2.31259 18.9206 1.56554C16.7328 0.815141 14.3295 1.59909 12.9871 3.50025C12.4086 4.31999 12.0859 4.31663 11.4973 3.48907C10.0735 1.48614 7.4468 0.748041 5.18868 1.71316C2.97523 2.65927 1.71551 5.07039 2.10973 7.47368C2.40567 9.27754 3.43087 10.6061 4.74532 11.7558C5.75377 12.637 6.87278 13.3997 7.82539 14.3358C9.36207 15.8455 10.8005 17.4537 12.326 19.0663H12.3238Z" fill="black"/>
</g>
<defs>
<clipPath id="clip0_2_36">
<rect width="23" height="21" fill="white" transform="translate(0.736816)"/>
</clipPath>
</defs>
</svg>
