<svg width="12" height="12" viewBox="0 0 12 12" fill="none" xmlns="http://www.w3.org/2000/svg">
<path d="M8.27609 5.66776C8.27305 7.05241 7.0938 8.24487 5.74435 8.22937C4.38274 8.21284 3.2197 7.00488 3.24604 5.6347C3.27238 4.26141 4.41212 3.10822 5.75144 3.09892C7.10393 3.09065 8.27811 4.28621 8.27507 5.66776H8.27609Z" fill="#AE7BB6"/>
<path d="M11.271 5.65022C11.271 6.73711 11.3259 7.82681 11.2572 8.90904C11.1693 10.3001 10.3084 11.2088 8.93383 11.2554C6.81832 11.3263 4.69641 11.3254 2.5809 11.2526C1.21361 11.206 0.323448 10.2926 0.278574 8.89038C0.208973 6.73525 0.209888 4.57358 0.281321 2.41845C0.327111 1.02555 1.22368 0.119644 2.59922 0.0729958C4.71472 0.00209098 6.83664 0.00302394 8.95214 0.0757946C10.3185 0.122443 11.1711 1.03674 11.26 2.43804C11.3277 3.50441 11.2737 4.57918 11.2737 5.65022C11.2737 5.65022 11.2719 5.65022 11.271 5.65022ZM9.28733 5.66141C9.28458 3.68074 7.70665 2.07419 5.76423 2.07699C3.81907 2.07979 2.24389 3.68634 2.24572 5.66514C2.24847 7.64581 3.82639 9.25237 5.76881 9.24957C7.71306 9.24677 9.29007 7.63928 9.28733 5.66048V5.66141ZM10.2388 1.94731C10.237 1.48829 9.88077 1.11884 9.43019 1.10951C8.95306 1.09925 8.59132 1.46497 8.59132 1.95757C8.59132 2.43618 8.92375 2.78137 9.39173 2.7879C9.87619 2.79443 10.2398 2.43338 10.2379 1.94824L10.2388 1.94731Z" fill="#AE7BB6"/>
</svg>
