<svg width="99" height="94" viewBox="0 0 99 94" fill="none" xmlns="http://www.w3.org/2000/svg">
<g clip-path="url(#clip0_9_106)">
<path d="M97.9085 61.7012H1.0918V89.0835H97.9085V61.7012Z" stroke="#AE7BB6" stroke-width="2" stroke-linejoin="bevel"/>
<path d="M97.9085 61.7012H1.0918V65.4526H97.9085V61.7012Z" stroke="#AE7BB6" stroke-width="2" stroke-linejoin="bevel"/>
<path d="M1.0918 78.8873C7.13943 78.8873 7.13943 81.0249 13.1871 81.0249C19.2347 81.0249 19.2347 78.8873 25.2823 78.8873C31.33 78.8873 31.33 81.0249 37.3776 81.0249C43.4252 81.0249 43.4252 78.8873 49.4729 78.8873C55.5205 78.8873 55.5205 81.0249 61.5791 81.0249C67.6376 81.0249 67.6267 78.8873 73.6743 78.8873C79.722 78.8873 79.7329 81.0249 85.7805 81.0249C91.8282 81.0249 91.8391 78.8873 97.8867 78.8873" stroke="#AE7BB6" stroke-width="2" stroke-linejoin="bevel"/>
<path d="M6.64844 61.7012V51.195C6.64844 48.2024 9.37751 45.7869 12.7397 45.7869H17.0408C20.403 45.7869 23.1321 43.3608 23.1321 40.3788V39.7376C23.1321 36.745 25.8611 34.3295 29.2234 34.3295H70.094C73.4562 34.3295 76.1853 36.7557 76.1853 39.7376C76.1853 42.7302 78.9144 45.1456 82.2766 45.1456H86.2174C89.5796 45.1456 92.3087 47.5718 92.3087 50.5537V61.7012H6.64844Z" stroke="#AE7BB6" stroke-width="2" stroke-linejoin="bevel"/>
<path d="M29.1685 51.0561L31.4609 53.2898" stroke="#AE7BB6" stroke-width="2" stroke-linejoin="bevel"/>
<path d="M27.0945 51.1736L24.9331 53.2898" stroke="#AE7BB6" stroke-width="2" stroke-linejoin="bevel"/>
<path d="M27.2146 48.8437L24.9331 46.6099" stroke="#AE7BB6" stroke-width="2" stroke-linejoin="bevel"/>
<path d="M29.2886 48.7261L31.4609 46.6099" stroke="#AE7BB6" stroke-width="2" stroke-linejoin="bevel"/>
<path d="M29.8128 49.9018C29.8128 50.7782 29.0923 51.4836 28.1972 51.4836C27.302 51.4836 26.5815 50.7782 26.5815 49.9018C26.5815 49.0253 27.302 48.3199 28.1972 48.3199C29.0923 48.3199 29.8128 49.0253 29.8128 49.9018Z" stroke="#AE7BB6" stroke-width="2" stroke-linejoin="bevel"/>
<path d="M50.4775 51.0561L52.759 53.2898" stroke="#AE7BB6" stroke-width="2" stroke-linejoin="bevel"/>
<path d="M48.4033 51.1736L46.231 53.2898" stroke="#AE7BB6" stroke-width="2" stroke-linejoin="bevel"/>
<path d="M48.5234 48.8437L46.231 46.6099" stroke="#AE7BB6" stroke-width="2" stroke-linejoin="bevel"/>
<path d="M50.5977 48.7261L52.7591 46.6099" stroke="#AE7BB6" stroke-width="2" stroke-linejoin="bevel"/>
<path d="M51.1214 49.9018C51.1214 50.7782 50.4009 51.4836 49.5057 51.4836C48.6106 51.4836 47.8901 50.7782 47.8901 49.9018C47.8901 49.0253 48.6106 48.3199 49.5057 48.3199C50.4009 48.3199 51.1214 49.0253 51.1214 49.9018Z" stroke="#AE7BB6" stroke-width="2" stroke-linejoin="bevel"/>
<path d="M71.7749 51.0561L74.0673 53.2898" stroke="#AE7BB6" stroke-width="2" stroke-linejoin="bevel"/>
<path d="M69.701 51.1736L67.5396 53.2898" stroke="#AE7BB6" stroke-width="2" stroke-linejoin="bevel"/>
<path d="M69.832 48.8437L67.5396 46.6099" stroke="#AE7BB6" stroke-width="2" stroke-linejoin="bevel"/>
<path d="M71.895 48.7261L74.0674 46.6099" stroke="#AE7BB6" stroke-width="2" stroke-linejoin="bevel"/>
<path d="M72.4192 49.9018C72.4192 50.7782 71.6987 51.4836 70.8036 51.4836C69.9085 51.4836 69.188 50.7782 69.188 49.9018C69.188 49.0253 69.9085 48.3199 70.8036 48.3199C71.6987 48.3199 72.4192 49.0253 72.4192 49.9018Z" stroke="#AE7BB6" stroke-width="2" stroke-linejoin="bevel"/>
<path d="M6.64844 89.0836V94" stroke="#AE7BB6" stroke-width="2" stroke-linejoin="bevel"/>
<path d="M92.3413 89.0836V94" stroke="#AE7BB6" stroke-width="2" stroke-linejoin="bevel"/>
<path d="M53.8296 22.2347C59.5604 19.8933 62.2676 13.4467 59.8762 7.83579C57.4848 2.22486 50.9004 -0.425655 45.1696 1.9157C39.4387 4.25705 36.7316 10.7036 39.123 16.3146C41.5144 21.9255 48.0987 24.576 53.8296 22.2347Z" stroke="#AE7BB6" stroke-width="2" stroke-linejoin="bevel"/>
<path d="M49.4941 2.5437V3.84762" stroke="#AE7BB6" stroke-width="2" stroke-linejoin="bevel"/>
<path d="M49.4941 20.307V21.6109" stroke="#AE7BB6" stroke-width="2" stroke-linejoin="bevel"/>
<path d="M39.7568 12.0773H41.0886" stroke="#AE7BB6" stroke-width="2" stroke-linejoin="bevel"/>
<path d="M57.8999 12.0773H59.2426" stroke="#AE7BB6" stroke-width="2" stroke-linejoin="bevel"/>
<path d="M42.606 18.8214L43.5557 17.8915" stroke="#AE7BB6" stroke-width="2" stroke-linejoin="bevel"/>
<path d="M55.4434 6.2631L56.3822 5.33325" stroke="#AE7BB6" stroke-width="2" stroke-linejoin="bevel"/>
<path d="M56.3822 18.8214L55.4434 17.8915" stroke="#AE7BB6" stroke-width="2" stroke-linejoin="bevel"/>
<path d="M43.5557 6.2631L42.606 5.33325" stroke="#AE7BB6" stroke-width="2" stroke-linejoin="bevel"/>
<path d="M45.9355 7.46014L49.4943 12.0773L52.0487 10.1749" stroke="#AE7BB6" stroke-width="2" stroke-linejoin="bevel"/>
</g>
<defs>
<clipPath id="clip0_9_106">
<rect width="99" height="94" fill="white"/>
</clipPath>
</defs>
</svg>
