<svg width="63" height="88" viewBox="0 0 63 88" fill="none" xmlns="http://www.w3.org/2000/svg">
<path d="M54.0163 73.3533H12.6909V86.0045H54.0163V73.3533Z" stroke="#AE7BB6" stroke-width="2" stroke-linejoin="bevel"/>
<path d="M32.3794 73.3533L54.0161 34.0227" stroke="#AE7BB6" stroke-width="2" stroke-linejoin="bevel"/>
<path d="M56.0021 35.22C58.8224 35.22 61.1087 32.8078 61.1087 29.8322C61.1087 26.8566 58.8224 24.4445 56.0021 24.4445C53.1818 24.4445 50.8955 26.8566 50.8955 29.8322C50.8955 32.8078 53.1818 35.22 56.0021 35.22Z" stroke="#AE7BB6" stroke-width="2" stroke-linejoin="bevel"/>
<path d="M53.6189 25.9011L30.1665 14.3275" stroke="#AE7BB6" stroke-width="2" stroke-linejoin="bevel"/>
<path d="M1.64551 5.50747L20.2372 40.1687L24.0955 37.8739C26.3084 36.5569 27.0838 33.5837 25.8355 31.249L25.4573 30.5506C24.0766 27.9764 24.9466 24.7238 27.3675 23.2671L28.3321 22.6884C30.7719 21.2317 31.623 17.9791 30.2423 15.405L26.5353 8.50067C25.1547 5.92652 22.0718 5.02856 19.632 6.48525C17.1922 7.94194 14.1093 7.04398 12.7287 4.46983C11.4804 2.13514 8.66232 1.317 6.44947 2.634L1.64551 5.50747Z" stroke="#AE7BB6" stroke-width="2" stroke-linejoin="bevel"/>
<path d="M13.8067 28.1959C11.0075 29.8721 7.43293 28.8344 5.84422 25.8612C4.25551 22.9079 5.239 19.1365 8.05707 17.4603" stroke="#AE7BB6" stroke-width="2" stroke-linejoin="bevel"/>
</svg>
