<svg width="11" height="16" viewBox="0 0 11 16" fill="none" xmlns="http://www.w3.org/2000/svg">
<g opacity="0.7" clip-path="url(#clip0_42_5)">
<path d="M9.51031 3.68279C9.51031 5.71271 7.66788 7.36557 5.40237 7.36557C3.13687 7.36557 1.29443 5.71271 1.29443 3.68279C1.29443 1.65286 3.13687 0 5.40237 0C7.66788 0 9.51031 1.65175 9.51031 3.68279Z" fill="#606060" fill-opacity="0.7"/>
<path d="M10.75 12.4109V15.4697C10.75 15.6243 10.6098 15.75 10.4373 15.75H0.561414C0.390199 15.75 0.25 15.6243 0.25 15.4697V12.4109C0.25 9.81596 2.60484 7.70483 5.49938 7.70483C8.39392 7.70483 10.75 9.81596 10.75 12.4109Z" fill="#606060" fill-opacity="0.7"/>
</g>
<defs>
<clipPath id="clip0_42_5">
<rect width="10.5" height="15.75" fill="white" transform="translate(0.25)"/>
</clipPath>
</defs>
</svg>
